<svg width="40" height="40" viewBox="0 0 40 40" fill="none" xmlns="http://www.w3.org/2000/svg">
<path fill-rule="evenodd" clip-rule="evenodd" d="M19.9742 3.92208C14.4663 3.92208 9.88326 8.74883 9.88326 14.8539V33.7143H30.0651V14.8539C30.0651 8.74883 25.4821 3.92208 19.9742 3.92208ZM7.96118 14.8539C7.96118 7.82247 13.2744 2 19.9742 2C26.6739 2 31.9872 7.82247 31.9872 14.8539V34.6753C31.9872 35.2061 31.5569 35.6364 31.0261 35.6364H8.92222C8.39145 35.6364 7.96118 35.2061 7.96118 34.6753V14.8539Z" fill="#0C0C0F"/>
<path fill-rule="evenodd" clip-rule="evenodd" d="M7 38.0389C7 37.5082 7.43027 37.0779 7.96104 37.0779H31.987C32.5178 37.0779 32.9481 37.5082 32.9481 38.0389C32.9481 38.5697 32.5178 39 31.987 39H7.96104C7.43027 39 7 38.5697 7 38.0389Z" fill="#0C0C0F"/>
<path fill-rule="evenodd" clip-rule="evenodd" d="M26.2207 24.1039C26.7514 24.1039 27.1817 23.6736 27.1817 23.1428C27.1817 22.6121 26.7514 22.1818 26.2207 22.1818C25.6899 22.1818 25.2596 22.6121 25.2596 23.1428C25.2596 23.6736 25.6899 24.1039 26.2207 24.1039ZM24.2986 23.1428C24.2986 22.0813 25.1591 21.2208 26.2207 21.2208C27.2822 21.2208 28.1427 22.0813 28.1427 23.1428C28.1427 24.2044 27.2822 25.0649 26.2207 25.0649C25.1591 25.0649 24.2986 24.2044 24.2986 23.1428Z" fill="#0C0C0F"/>
</svg>
