<svg width="40" height="40" viewBox="0 0 40 40" fill="none" xmlns="http://www.w3.org/2000/svg">
<path d="M8.92212 15.3354C8.92212 8.76666 13.8706 3.44165 19.9749 3.44165C26.0792 3.44165 31.0277 8.76666 31.0277 15.3354V35.1583H8.92212V15.3354Z" fill="#0C0C0F"/>
<path fill-rule="evenodd" clip-rule="evenodd" d="M8.92212 14.8549V34.6778L26.7027 32.0347V16.9416C26.7027 14.9913 26.6584 13.0103 25.957 11.1905C24.9665 8.62032 22.729 5.18132 17.8124 4.88334C9.88323 4.40279 8.92212 14.8549 8.92212 14.8549Z" fill="white" fill-opacity="0.9"/>
<path fill-rule="evenodd" clip-rule="evenodd" d="M18.7204 4.00651C23.5904 4.66391 25.8575 8.25906 26.854 10.8449C27.6278 12.8527 27.664 15.0036 27.664 16.9416V32.0347C27.664 32.511 27.3152 32.9154 26.8442 32.9854L21.9247 33.7167H30.0667V14.8549C30.0667 8.74934 25.4834 3.92222 19.9751 3.92222C19.5508 3.92222 19.132 3.95086 18.7204 4.00651ZM9.8834 33.5632V14.9041C9.88497 14.8897 9.88701 14.8715 9.88958 14.8497C9.89755 14.7818 9.91056 14.6789 9.93002 14.5461C9.96898 14.2804 10.0336 13.8967 10.135 13.4358C10.3389 12.5095 10.6865 11.2947 11.2597 10.1064C12.4072 7.72751 14.344 5.63599 17.7544 5.84268C22.1279 6.10774 24.1322 9.12751 25.0604 11.5361C25.6893 13.1679 25.7417 14.979 25.7417 16.9416V31.2059L9.8834 33.5632ZM7.96118 14.8549C7.96118 7.82291 13.2748 2 19.9751 2C26.6753 2 31.989 7.82291 31.989 14.8549V34.6778C31.989 35.2086 31.5587 35.6389 31.0278 35.6389H8.92229C8.39149 35.6389 7.96118 35.2086 7.96118 34.6778V14.8549Z" fill="#0C0C0F"/>
<path fill-rule="evenodd" clip-rule="evenodd" d="M7 38.0417C7 37.5109 7.4303 37.0806 7.96111 37.0806H31.9889C32.5197 37.0806 32.95 37.5109 32.95 38.0417C32.95 38.5725 32.5197 39.0028 31.9889 39.0028H7.96111C7.4303 39.0028 7 38.5725 7 38.0417Z" fill="#0C0C0F"/>
<path fill-rule="evenodd" clip-rule="evenodd" d="M22.3778 22.1833C22.9086 22.1833 23.3389 21.753 23.3389 21.2222C23.3389 20.6914 22.9086 20.2611 22.3778 20.2611C21.847 20.2611 21.4167 20.6914 21.4167 21.2222C21.4167 21.753 21.847 22.1833 22.3778 22.1833ZM20.4556 21.2222C20.4556 20.1606 21.3162 19.3 22.3778 19.3C23.4394 19.3 24.3 20.1606 24.3 21.2222C24.3 22.2838 23.4394 23.1444 22.3778 23.1444C21.3162 23.1444 20.4556 22.2838 20.4556 21.2222Z" fill="#0C0C0F"/>
</svg>
