<svg width="1301" height="865" viewBox="0 0 1301 865" fill="none" xmlns="http://www.w3.org/2000/svg">
<circle cx="3.5" cy="3.5" r="3.5" transform="matrix(1 0 0 -1 956.243 767.732)" fill="white"/>
<circle cx="3.5" cy="3.5" r="3.5" transform="matrix(1 0 0 -1 855.991 686.131)" fill="white"/>
<circle cx="3.5" cy="3.5" r="3.5" transform="matrix(1 0 0 -1 1070.48 575.387)" fill="white"/>
<circle cx="3.5" cy="3.5" r="3.5" transform="matrix(1 0 0 -1 223.003 814.361)" fill="white"/>
<circle cx="3.5" cy="3.5" r="3.5" transform="matrix(1 0 0 -1 508.605 827.184)" fill="white"/>
<circle cx="3.5" cy="3.5" r="3.5" transform="matrix(1 0 0 -1 65.6306 508.941)" fill="white"/>
<circle cx="3.5" cy="3.5" r="3.5" transform="matrix(1 0 0 -1 186.866 624.348)" fill="white"/>
<circle cx="3.5" cy="3.5" r="3.5" transform="matrix(1 0 0 -1 71.4592 767.732)" fill="white"/>
<circle cx="3.5" cy="3.5" r="3.5" transform="matrix(1 0 0 -1 235.826 348.071)" fill="white"/>
<circle cx="3.5" cy="3.5" r="3.5" transform="matrix(1 0 0 -1 41.1504 341.077)" fill="white"/>
<circle cx="3.5" cy="3.5" r="3.5" transform="matrix(1 0 0 -1 120.42 36.8229)" fill="white"/>
<circle cx="3.5" cy="3.5" r="3.5" transform="matrix(1 0 0 -1 107.597 197.693)" fill="white"/>
<circle cx="3.5" cy="3.5" r="3.5" transform="matrix(1 0 0 -1 323.255 104.435)" fill="white"/>
<circle cx="3.5" cy="3.5" r="3.5" transform="matrix(1 0 0 -1 241.655 243.156)" fill="white"/>
<circle cx="3.5" cy="3.5" r="3.5" transform="matrix(1 0 0 -1 404.856 379.546)" fill="white"/>
<circle cx="3.5" cy="3.5" r="3.5" transform="matrix(1 0 0 -1 323.255 496.118)" fill="white"/>
<circle cx="3.5" cy="3.5" r="3.5" transform="matrix(1 0 0 -1 593.703 654.656)" fill="white"/>
<circle cx="3.5" cy="3.5" r="3.5" transform="matrix(1 0 0 -1 770.893 385.375)" fill="white"/>
<circle cx="3.5" cy="3.5" r="3.5" transform="matrix(1 0 0 -1 538.914 562.564)" fill="white"/>
<circle cx="3.5" cy="3.5" r="3.5" transform="matrix(1 0 0 -1 997.043 427.34)" fill="white"/>
<circle cx="3.5" cy="3.5" r="3.5" transform="matrix(1 0 0 -1 950.415 236.162)" fill="white"/>
<circle cx="3.5" cy="3.5" r="3.5" transform="matrix(1 0 0 -1 1191.72 328.254)" fill="white"/>
<circle cx="3.5" cy="3.5" r="3.5" transform="matrix(1 0 0 -1 1204.54 117.258)" fill="white"/>
<circle cx="3.5" cy="3.5" r="3.5" transform="matrix(1 0 0 -1 850.162 98.6063)" fill="white"/>
<circle cx="3.5" cy="3.5" r="3.5" transform="matrix(1 0 0 -1 1057.66 36.8229)" fill="white"/>
<circle cx="3.5" cy="3.5" r="3.5" transform="matrix(1 0 0 -1 1204.54 743.251)" fill="white"/>
<circle cx="3.5" cy="3.5" r="3.5" transform="matrix(1 0 0 -1 671.807 808.532)" fill="white"/>
<circle cx="3.5" cy="3.5" r="3.5" transform="matrix(1 0 0 -1 378.044 691.96)" fill="white"/>
<circle cx="1175.4" cy="144.314" r="2" fill="white"/>
<circle cx="1094.16" cy="210.439" r="2" fill="white"/>
<circle cx="1267.97" cy="300.181" r="2" fill="white"/>
<circle cx="581.214" cy="106.528" r="2" fill="white"/>
<circle cx="812.653" cy="96.1365" r="2" fill="white"/>
<circle cx="453.686" cy="354.026" r="2" fill="white"/>
<circle cx="375.281" cy="40.4022" r="2" fill="white"/>
<circle cx="551.93" cy="260.506" r="2" fill="white"/>
<circle cx="293.096" cy="420.151" r="2" fill="white"/>
<circle cx="342.218" cy="235.945" r="2" fill="white"/>
<circle cx="458.41" cy="144.314" r="2" fill="white"/>
<circle cx="591.605" cy="484.387" r="2" fill="white"/>
<circle cx="364.889" cy="616.638" r="2" fill="white"/>
<circle cx="433.849" cy="490.055" r="2" fill="white"/>
<circle cx="250.587" cy="709.214" r="2" fill="white"/>
<circle cx="498.085" cy="736.609" r="2" fill="white"/>
<circle cx="487.694" cy="606.247" r="2" fill="white"/>
<circle cx="313.878" cy="559.015" r="2" fill="white"/>
<circle cx="662.454" cy="681.819" r="2" fill="white"/>
<circle cx="596.328" cy="569.406" r="2" fill="white"/>
<circle cx="728.579" cy="458.882" r="2" fill="white"/>
<circle cx="662.454" cy="364.417" r="2" fill="white"/>
<circle cx="881.612" cy="235.945" r="2" fill="white"/>
<circle cx="1025.2" cy="454.159" r="2" fill="white"/>
<circle cx="837.214" cy="310.572" r="2" fill="white"/>
<circle cx="1208.46" cy="420.151" r="2" fill="white"/>
<circle cx="1170.68" cy="575.074" r="2" fill="white"/>
<circle cx="1089.44" cy="686.542" r="2" fill="white"/>
<circle cx="1257.58" cy="736.609" r="2" fill="white"/>
<circle cx="944.904" cy="111.251" r="2" fill="white"/>
<circle cx="682.292" cy="14.8967" r="2" fill="white"/>
<circle cx="706.852" cy="205.716" r="2" fill="white"/>
<circle cx="282.705" cy="116.919" r="2" fill="white"/>
</svg>
