<svg width="1301" height="848" viewBox="0 0 1301 848" fill="none" xmlns="http://www.w3.org/2000/svg">
<circle cx="420.866" cy="785.232" r="5.5" transform="rotate(180 420.866 785.232)" fill="white"/>
<circle cx="521.118" cy="703.631" r="5.5" transform="rotate(180 521.118 703.631)" fill="white"/>
<circle cx="306.625" cy="592.887" r="5.5" transform="rotate(180 306.625 592.887)" fill="white"/>
<circle cx="1154.11" cy="831.861" r="5.5" transform="rotate(180 1154.11 831.861)" fill="white"/>
<circle cx="868.504" cy="844.684" r="5.5" transform="rotate(180 868.504 844.684)" fill="white"/>
<circle cx="4" cy="4" r="4" transform="matrix(-1 0 0 1 832.679 281.506)" fill="white"/>
<circle cx="4" cy="4" r="4" transform="matrix(-1 0 0 1 1091.51 441.151)" fill="white"/>
<circle cx="4" cy="4" r="4" transform="matrix(-1 0 0 1 1042.39 256.945)" fill="white"/>
<circle cx="4" cy="4" r="4" transform="matrix(-1 0 0 1 926.199 165.314)" fill="white"/>
<circle cx="4" cy="4" r="4" transform="matrix(-1 0 0 1 793.004 505.387)" fill="white"/>
<circle cx="4" cy="4" r="4" transform="matrix(-1 0 0 1 1019.72 637.638)" fill="white"/>
<circle cx="4" cy="4" r="4" transform="matrix(-1 0 0 1 950.76 511.055)" fill="white"/>
<circle cx="4" cy="4" r="4" transform="matrix(-1 0 0 1 1134.02 730.214)" fill="white"/>
<circle cx="4" cy="4" r="4" transform="matrix(-1 0 0 1 886.524 757.609)" fill="white"/>
<circle cx="4" cy="4" r="4" transform="matrix(-1 0 0 1 896.915 627.247)" fill="white"/>
<circle cx="4" cy="4" r="4" transform="matrix(-1 0 0 1 1070.73 580.015)" fill="white"/>
<circle cx="4" cy="4" r="4" transform="matrix(-1 0 0 1 722.155 702.819)" fill="white"/>
<circle cx="4" cy="4" r="4" transform="matrix(-1 0 0 1 788.28 590.406)" fill="white"/>
<circle cx="4" cy="4" r="4" transform="matrix(-1 0 0 1 656.029 479.882)" fill="white"/>
<circle cx="4" cy="4" r="4" transform="matrix(-1 0 0 1 722.155 385.417)" fill="white"/>
<circle cx="4" cy="4" r="4" transform="matrix(-1 0 0 1 502.996 256.945)" fill="white"/>
<circle cx="4" cy="4" r="4" transform="matrix(-1 0 0 1 359.41 475.159)" fill="white"/>
<circle cx="4" cy="4" r="4" transform="matrix(-1 0 0 1 547.395 331.572)" fill="white"/>
<circle cx="4" cy="4" r="4" transform="matrix(-1 0 0 1 176.148 441.151)" fill="white"/>
<circle cx="4" cy="4" r="4" transform="matrix(-1 0 0 1 213.934 596.074)" fill="white"/>
<circle cx="4" cy="4" r="4" transform="matrix(-1 0 0 1 18.3911 521.446)" fill="white"/>
<circle cx="4" cy="4" r="4" transform="matrix(-1 0 0 1 8 692.428)" fill="white"/>
<circle cx="4" cy="4" r="4" transform="matrix(-1 0 0 1 295.173 707.542)" fill="white"/>
<circle cx="4" cy="4" r="4" transform="matrix(-1 0 0 1 127.026 757.609)" fill="white"/>
<circle cx="4" cy="4" r="4" transform="matrix(-1 0 0 1 8 185.151)" fill="white"/>
<circle cx="4" cy="4" r="4" transform="matrix(-1 0 0 1 80.7378 71.7933)" fill="white"/>
<circle cx="4" cy="4" r="4" transform="matrix(-1 0 0 1 439.705 132.251)" fill="white"/>
<circle cx="4" cy="4" r="4" transform="matrix(-1 0 0 1 702.317 35.8967)" fill="white"/>
<circle cx="4" cy="4" r="4" transform="matrix(-1 0 0 1 280.059 0)" fill="white"/>
<circle cx="4" cy="4" r="4" transform="matrix(-1 0 0 1 677.756 226.716)" fill="white"/>
<circle cx="4" cy="4" r="4" transform="matrix(-1 0 0 1 1101.9 137.919)" fill="white"/>
</svg>
