<svg width="1272" height="825" viewBox="0 0 1272 825" fill="none" xmlns="http://www.w3.org/2000/svg">
<ellipse cx="1022.44" cy="131.502" rx="2.48622" ry="2.5" fill="white"/>
<ellipse cx="922.738" cy="213.102" rx="2.48622" ry="2.5" fill="white"/>
<ellipse cx="1136.05" cy="323.846" rx="2.48622" ry="2.5" fill="white"/>
<ellipse cx="293.24" cy="84.8727" rx="2.48622" ry="2.5" fill="white"/>
<ellipse cx="577.268" cy="72.0497" rx="2.48622" ry="2.5" fill="white"/>
<ellipse cx="136.735" cy="390.292" rx="2.48622" ry="2.5" fill="white"/>
<ellipse cx="40.5134" cy="3.27209" rx="2.48622" ry="2.5" fill="white"/>
<ellipse cx="257.302" cy="274.886" rx="2.48622" ry="2.5" fill="white"/>
<ellipse cx="-0.0619998" cy="244.577" rx="2.48622" ry="2.5" fill="white"/>
<ellipse cx="142.532" cy="131.502" rx="2.48622" ry="2.5" fill="white"/>
<ellipse cx="305.992" cy="551.162" rx="2.48622" ry="2.5" fill="white"/>
<ellipse cx="27.7611" cy="714.363" rx="2.48622" ry="2.5" fill="white"/>
<ellipse cx="112.39" cy="558.156" rx="2.48622" ry="2.5" fill="white"/>
<ellipse cx="178.47" cy="701.54" rx="2.48622" ry="2.5" fill="white"/>
<ellipse cx="392.94" cy="794.798" rx="2.48622" ry="2.5" fill="white"/>
<ellipse cx="311.789" cy="656.077" rx="2.48622" ry="2.5" fill="white"/>
<ellipse cx="474.091" cy="519.688" rx="2.48622" ry="2.5" fill="white"/>
<ellipse cx="392.94" cy="403.115" rx="2.48622" ry="2.5" fill="white"/>
<ellipse cx="661.896" cy="244.577" rx="2.48622" ry="2.5" fill="white"/>
<ellipse cx="838.11" cy="513.859" rx="2.48622" ry="2.5" fill="white"/>
<ellipse cx="607.41" cy="336.669" rx="2.48622" ry="2.5" fill="white"/>
<ellipse cx="1063.01" cy="471.893" rx="2.48622" ry="2.5" fill="white"/>
<ellipse cx="1016.64" cy="663.072" rx="2.48622" ry="2.5" fill="white"/>
<ellipse cx="1256.62" cy="570.979" rx="2.48622" ry="2.5" fill="white"/>
<ellipse cx="1269.37" cy="781.975" rx="2.48622" ry="2.5" fill="white"/>
<ellipse cx="916.942" cy="800.627" rx="2.48622" ry="2.5" fill="white"/>
<ellipse cx="1269.37" cy="155.982" rx="2.48622" ry="2.5" fill="white"/>
<ellipse cx="0.994487" cy="1" rx="0.994487" ry="1" transform="matrix(1 0 0 -1 1006.69 787.482)" fill="white"/>
<ellipse cx="0.994487" cy="1" rx="0.994487" ry="1" transform="matrix(1 0 0 -1 769.947 693.017)" fill="white"/>
<ellipse cx="0.994487" cy="1" rx="0.994487" ry="1" transform="matrix(1 0 0 -1 348.138 781.814)" fill="white"/>
</svg>
